<svg width="25" height="24" viewBox="0 0 25 24" fill="none" xmlns="http://www.w3.org/2000/svg">
<g clip-path="url(#clip0_203_82)">
<path d="M22.5 17.5H20.5L12.5 3.25L4.5 17.5H2.5" stroke="#EFB41D" stroke-width="4" stroke-linecap="round" stroke-linejoin="round"/>
<path d="M2.5 20.5H22.5M8 11.5C8 11.5 10.5 9.5 12.5 9.5C14.5 9.5 17 11.5 17 11.5M12.5 15.5C11.1195 15.5 10 17.291 10 19.5V20.5H15V19.5C15 17.291 13.8805 15.5 12.5 15.5ZM20.5 3L19.5 4.5L20.5 6L21.5 4.5L20.5 3ZM4 8.5L3.5 9.5L4 10.5L4.5 9.5L4 8.5Z" stroke="#EFB41D" stroke-width="4" stroke-linecap="round" stroke-linejoin="round"/>
</g>
<defs>
<clipPath id="clip0_203_82">
<rect width="24" height="24" fill="white" transform="translate(0.5)"/>
</clipPath>
</defs>
</svg>
