<svg width="25" height="24" viewBox="0 0 25 24" fill="none" xmlns="http://www.w3.org/2000/svg">
<g clip-path="url(#clip0_203_90)">
<path fill-rule="evenodd" clip-rule="evenodd" d="M13.207 2.29303L17.207 6.29303C17.3586 6.44467 17.4575 6.64103 17.489 6.85314C17.5205 7.06525 17.483 7.28186 17.382 7.47103C17.135 7.93403 16.749 8.24603 16.372 8.45803L19.207 11.293C19.3945 11.4806 19.4998 11.7349 19.4998 12C19.4998 12.2652 19.3945 12.5195 19.207 12.707C18.729 13.185 18.125 13.477 17.573 13.659L20.207 16.293C20.3276 16.4136 20.4153 16.5631 20.4618 16.7271C20.5084 16.8912 20.5122 17.0644 20.4729 17.2304C20.4336 17.3963 20.3526 17.5495 20.2374 17.6752C20.1223 17.801 19.9769 17.8953 19.815 17.949C19.123 18.178 18.41 18.338 17.696 18.481C17.154 18.589 16.521 18.697 15.816 18.787L16.449 20.684C16.4991 20.8344 16.5127 20.9944 16.4888 21.1511C16.4649 21.3077 16.404 21.4564 16.3114 21.5849C16.2187 21.7135 16.0968 21.8181 15.9557 21.8903C15.8147 21.9625 15.6585 22.0001 15.5 22H9.50003C9.34157 22.0001 9.18538 21.9625 9.04432 21.8903C8.90326 21.8181 8.78136 21.7135 8.68868 21.5849C8.596 21.4564 8.53519 21.3077 8.51126 21.1511C8.48732 20.9944 8.50096 20.8344 8.55103 20.684L9.18403 18.787C8.55394 18.7073 7.92688 18.6052 7.30403 18.481C6.76928 18.3744 6.23859 18.2483 5.71303 18.103L5.18303 17.949C5.02135 17.895 4.87615 17.8006 4.76122 17.6747C4.6463 17.5488 4.56546 17.3957 4.52639 17.2297C4.48731 17.0638 4.4913 16.8907 4.53796 16.7267C4.58463 16.5628 4.67243 16.4135 4.79303 16.293L7.42703 13.659C6.87503 13.478 6.27103 13.185 5.79303 12.707C5.60556 12.5195 5.50024 12.2652 5.50024 12C5.50024 11.7349 5.60556 11.4806 5.79303 11.293L8.62803 8.45803C8.25103 8.24603 7.86503 7.93403 7.61803 7.47103C7.51704 7.28186 7.47953 7.06525 7.51104 6.85314C7.54255 6.64103 7.64141 6.44467 7.79303 6.29303L11.793 2.29303C11.9806 2.10556 12.2349 2.00024 12.5 2.00024C12.7652 2.00024 13.0195 2.10556 13.207 2.29303ZM13.769 18.968C13.0619 19.0033 12.3536 19.0093 11.646 18.986L11.231 18.968L10.887 20H14.113L13.769 18.968ZM12.5 4.41403L10.028 6.88603L10.128 6.91503L10.315 6.95803L10.591 7.00403C10.974 7.04403 11.308 7.29403 11.441 7.65903C11.5057 7.83788 11.5181 8.03148 11.4766 8.2171C11.4352 8.40273 11.3417 8.57268 11.207 8.70703L8.13003 11.784C8.55303 11.914 9.03503 12 9.50203 12C9.69961 12.0005 9.89263 12.0594 10.0567 12.1695C10.2208 12.2795 10.3487 12.4357 10.4241 12.6183C10.4995 12.8009 10.5191 13.0018 10.4805 13.1956C10.4419 13.3893 10.3467 13.5673 10.207 13.707L7.44703 16.468L7.96103 16.571C9.13903 16.793 10.718 17 12.5 17C13.9283 16.9973 15.3536 16.8708 16.76 16.622L17.304 16.519L17.554 16.468L14.793 13.708C14.6604 13.5754 14.5677 13.408 14.5256 13.2252C14.4835 13.0423 14.4937 12.8514 14.5551 12.674C14.6164 12.4967 14.7264 12.3402 14.8724 12.2225C15.0185 12.1047 15.1947 12.0304 15.381 12.008L15.499 12C15.9638 11.9911 16.4251 11.9184 16.87 11.784L13.793 8.70703C13.6664 8.58046 13.5761 8.42221 13.5315 8.24882C13.4869 8.07542 13.4897 7.89323 13.5395 7.72128C13.5894 7.54932 13.6845 7.39391 13.8149 7.27126C13.9454 7.14861 14.1063 7.06323 14.281 7.02403L14.604 6.97403L14.776 6.93803C14.838 6.92403 14.905 6.90703 14.972 6.88603L12.5 4.41403Z" fill="#0FE371"/>
</g>
<defs>
<clipPath id="clip0_203_90">
<rect width="24" height="24" fill="white" transform="translate(0.5)"/>
</clipPath>
</defs>
</svg>
